<?xml version="1.0" encoding="utf-8"?>
<!-- Generator: Adobe Illustrator 27.7.0, SVG Export Plug-In . SVG Version: 6.00 Build 0)  -->
<svg version="1.1" id="Layer_1" xmlns="http://www.w3.org/2000/svg" xmlns:xlink="http://www.w3.org/1999/xlink" x="0px" y="0px"
	 viewBox="0 0 32 32" style="enable-background:new 0 0 32 32;" xml:space="preserve">
<style type="text/css">
	.st0{fill:#231F20;}
	.st1{fill:none;stroke:#231F20;stroke-width:3;stroke-linejoin:round;stroke-miterlimit:10;}
	.st2{fill:none;stroke:#231F20;stroke-width:1.5;stroke-linecap:round;stroke-linejoin:round;stroke-miterlimit:10;}
	.st3{fill:none;stroke:#231F20;stroke-width:3;stroke-linecap:round;stroke-linejoin:round;stroke-miterlimit:10;}
	.st4{fill:none;stroke:#231F20;stroke-width:3;stroke-miterlimit:10;}
	.st5{fill:#231F20;stroke:#231F20;stroke-width:0.6;stroke-miterlimit:10;}
</style>
<circle class="st4" cx="15.78" cy="15.76" r="13.67"/>
<path class="st0" d="M17.65,16.49c0.38-0.71,0.31-1.53-0.1-2.16l0.5-0.32l0.16-0.13l2.92-7.22c0.1-0.26,0-0.54-0.24-0.67
	c-0.26-0.14-0.54-0.06-0.69,0.16l-4.39,6.23l-0.1,0.18l0,0.79c-0.75,0.02-1.47,0.42-1.85,1.13c-0.39,0.74-0.3,1.61,0.16,2.25
	l-0.71,0.48l-0.15,0.13l-2.75,7.25c-0.1,0.26,0.01,0.53,0.25,0.66c0,0,0,0,0.01,0c0.25,0.13,0.54,0.05,0.69-0.18l4.27-6.35l0.1-0.18
	l-0.03-0.93C16.49,17.64,17.26,17.23,17.65,16.49z M15.53,15.92c-0.24-0.13-0.33-0.43-0.2-0.67s0.43-0.33,0.67-0.2
	c0.24,0.13,0.33,0.43,0.2,0.67C16.07,15.95,15.77,16.05,15.53,15.92z"/>
</svg>
