<svg width="32" height="32" viewBox="0 0 32 32" fill="none" xmlns="http://www.w3.org/2000/svg">
<path d="M23.6392 30.0201H8.51922C6.95922 30.0201 5.69922 28.7601 5.69922 27.2001V5.1701C5.69922 3.6101 6.95922 2.3501 8.51922 2.3501H23.6392C25.1992 2.3501 26.4592 3.6101 26.4592 5.1701V27.2001C26.4492 28.7601 25.1892 30.0201 23.6392 30.0201Z" stroke="#26374A" stroke-width="3" stroke-miterlimit="10" stroke-linejoin="round"/>
<path d="M16.2393 10.38C17.5979 10.38 18.6993 9.27858 18.6993 7.91996C18.6993 6.56134 17.5979 5.45996 16.2393 5.45996C14.8807 5.45996 13.7793 6.56134 13.7793 7.91996C13.7793 9.27858 14.8807 10.38 16.2393 10.38Z" stroke="#26374A" stroke-width="2" stroke-miterlimit="10" stroke-linejoin="round"/>
<path d="M9.43945 14.52H14.5895" stroke="#26374A" stroke-width="2.3" stroke-miterlimit="10" stroke-linecap="round" stroke-linejoin="round"/>
<path d="M9.43945 19.52H22.5595" stroke="#26374A" stroke-width="2.3" stroke-miterlimit="10" stroke-linecap="round" stroke-linejoin="round"/>
<path d="M9.43945 24.52H22.5595" stroke="#26374A" stroke-width="2.3" stroke-miterlimit="10" stroke-linecap="round" stroke-linejoin="round"/>
</svg>
