<svg width="32" height="32" viewBox="0 0 32 32" fill="none" xmlns="http://www.w3.org/2000/svg">
<path d="M15.7794 29.4298C23.3291 29.4298 29.4494 23.3096 29.4494 15.7598C29.4494 8.21011 23.3291 2.08984 15.7794 2.08984C8.22964 2.08984 2.10938 8.21011 2.10938 15.7598C2.10938 23.3096 8.22964 29.4298 15.7794 29.4298Z" stroke="#26374A" stroke-width="3" stroke-miterlimit="10"/>
<path d="M17.6499 16.4901C18.0299 15.7801 17.9599 14.9601 17.5499 14.3301L18.0499 14.0101L18.2099 13.8801L21.1299 6.66006C21.2299 6.40006 21.1299 6.12006 20.8899 5.99006C20.6299 5.85006 20.3499 5.93006 20.1999 6.15006L15.8099 12.3801L15.7099 12.5601V13.3501C14.9599 13.3701 14.2399 13.7701 13.8599 14.4801C13.4699 15.2201 13.5599 16.0901 14.0199 16.7301L13.3099 17.2101L13.1599 17.3401L10.4099 24.5901C10.3099 24.8501 10.4199 25.1201 10.6599 25.2501C10.6599 25.2501 10.6599 25.2501 10.6699 25.2501C10.9199 25.3801 11.2099 25.3001 11.3599 25.0701L15.6299 18.7201L15.7299 18.5401L15.6999 17.6101C16.4899 17.6401 17.2599 17.2301 17.6499 16.4901ZM15.5299 15.9201C15.2899 15.7901 15.1999 15.4901 15.3299 15.2501C15.4599 15.0101 15.7599 14.9201 15.9999 15.0501C16.2399 15.1801 16.3299 15.4801 16.1999 15.7201C16.0699 15.9501 15.7699 16.0501 15.5299 15.9201Z" fill="#26374A"/>
</svg>
